<?xml version="1.0" encoding="utf-8"?>
<!-- Generator: Adobe Illustrator 15.0.0, SVG Export Plug-In . SVG Version: 6.00 Build 0)  -->
<!DOCTYPE svg PUBLIC "-//W3C//DTD SVG 1.1//EN" "http://www.w3.org/Graphics/SVG/1.1/DTD/svg11.dtd">
<svg version="1.1" id="Layer_1" xmlns="http://www.w3.org/2000/svg" xmlns:xlink="http://www.w3.org/1999/xlink" x="0px" y="0px"
	 width="350px" height="436px" viewBox="0 0 350 436" enable-background="new 0 0 350 436" xml:space="preserve">
<g>
	<g>
		<g>
			<g>
				<path fill-rule="evenodd" clip-rule="evenodd" d="M70.021,308.948c-1.944,5.204-2.821,10.507-1.173,16.241
					c1.358,4.791,5.651,11.021,9.703,15.925c0.167,0.2,0.332,0.404,0.499,0.604c-6.597-6.553-12.526-13.597-17.78-21.027
					c-0.421-6.624,1.137-12.161,2.935-16.818c1.158-2.997,2.541-6.61,2.34-10.649c-0.248-4.846-2.062-11.133-3.848-18.502
					c-1.812-7.104-3.28-17.688-3.033-26.022c-3.739,4.654-8.382,10.125-11.475,13.89c-3.206,3.863-5.592,8.015-6.027,13.272
					c-0.363,4.222,1.045,10.326,2.674,15.453c-3.003-6.986-5.508-14.162-7.501-21.463c1.684-5.437,4.563-9.509,7.38-12.841
					c1.841-2.18,4.041-4.823,5.016-8.291c1.167-4.16,1.388-9.995,1.857-16.772c0.392-6.56,1.9-16.05,4.221-23.239
					c-4.356,3.129-9.693,6.663-13.286,9.092c-3.715,2.487-6.813,5.399-8.573,9.723c-1.28,3.128-1.787,7.903-1.895,12.275
					c-0.479-5.856-0.64-11.736-0.485-17.614c2.729-3.972,6.05-6.632,9.147-8.725c2.07-1.398,4.549-3.114,6.199-5.836
					c1.973-3.264,3.55-8.2,5.521-13.919c1.858-5.548,5.301-13.416,8.883-19.203c-4.391,1.854-9.687,3.8-13.263,5.126
					c-3.689,1.354-6.953,3.174-9.417,6.458c-1.553,2.066-2.909,5.302-3.961,8.515c1.094-5.443,2.473-10.842,4.146-16.173
					c3.078-2.527,6.309-3.978,9.251-5.034c2.02-0.729,4.458-1.646,6.44-3.596c2.379-2.339,4.813-6.185,7.744-10.652
					c2.795-4.341,7.417-10.398,11.695-14.732c-4.088,0.835-8.936,1.547-12.196,2.011c-3.371,0.47-6.473,1.389-9.232,3.67
					c-1.429,1.179-2.925,3.035-4.287,5.032c2.558-5.101,5.411-10.099,8.569-14.962c2.905-1.308,5.696-1.838,8.186-2.117
					c1.799-0.222,3.968-0.506,6.024-1.744c2.461-1.484,5.322-4.201,8.716-7.404c3.266-3.093,8.391-7.369,12.87-10.333
					c-3.565,0.088-7.688-0.099-10.472-0.22c-2.844-0.171-5.586,0.094-8.323,1.489c-1.054,0.535-2.219,1.379-3.378,2.337
					c2.191-2.501,4.483-4.952,6.87-7.346c0-0.003-0.001-0.003-0.003-0.003c4.318-3.768,9.341-6.714,13.969-8.999
					c2.68-1.346,5.96-2.91,8.535-4.775c3.087-2.243,6.122-5.245,9.57-8.666c3.333-3.314,8.729-8.063,13.886-11.665
					c-6.045,1.837-13.12,4.115-17.808,5.816c-4.847,1.698-9.067,3.639-12.362,6.034c-2.76,1.997-5.229,4.896-7.132,7.316
					c-3.274,4.184-6.75,8.857-10.523,13.226c0-0.002-0.004-0.004-0.004-0.004c-2.422,2.431-4.747,4.92-6.977,7.461
					c0.806-1.279,1.527-2.524,1.979-3.614c1.166-2.828,1.332-5.524,1.166-8.364c-0.132-2.773-0.086-6.981,0.594-10.73
					c-4.137,4.759-9.029,10.757-12.113,14.931c-3.251,4.299-5.583,8.183-6.517,11.182c-0.781,2.507-0.393,4.718-0.018,6.492
					c0.556,2.463,1.059,5.233,1.076,8.369c-3.203,4.938-6.102,10.01-8.7,15.189c0.794-2.309,1.519-4.604,1.774-6.461
					c0.501-3.583-0.137-6.743-1.157-10.053c-0.995-3.193-2.155-8.173-2.422-12.747c-3.503,6.561-7.446,14.827-9.806,20.534
					c-2.485,5.891-4.017,11.086-4.16,14.86c-0.12,3.156,1.037,5.647,2.063,7.603c1.501,2.856,3.072,6.082,4.148,9.927
					c-1.695,5.412-3.101,10.892-4.211,16.418c0.274-3.421,0.542-6.976,0.235-9.613c-0.493-4.188-2.145-7.611-4.264-11.122
					c-2.059-3.38-4.802-8.771-6.384-13.955c-2.173,8.393-4.294,18.907-5.287,26.091c-1.095,7.425-1.255,13.819-0.254,18.17
					c0.838,3.644,2.936,6.146,4.715,8.065c2.683,2.895,5.582,6.18,8.085,10.369c-0.16,5.967,0.007,11.936,0.489,17.883
					c-0.844-4.367-1.678-9.188-2.977-12.454c-1.803-4.51-4.647-7.854-8.039-11.184c-3.284-3.205-7.909-8.492-11.149-13.897
					c-0.045,10.03,0.69,22.464,1.768,30.831c1.035,8.669,2.865,15.901,5.357,20.478c2.083,3.826,5.216,5.969,7.806,7.553
					c3.984,2.438,8.361,5.229,12.598,9.188c2.024,7.411,4.567,14.695,7.614,21.791c-2.676-4.782-5.548-10.493-8.333-13.957
					c-3.48-4.306-7.681-7.023-12.46-9.571c-4.622-2.438-11.383-6.77-16.648-11.718c3.193,11.086,8.184,24.543,12.303,33.378
					c4.158,9.186,8.791,16.497,13.184,20.632c3.677,3.461,7.859,4.693,11.245,5.496c5.304,1.255,11.176,2.754,17.398,5.565
					c5.334,7.545,11.352,14.697,18.05,21.352c-0.208-0.169-0.416-0.342-0.617-0.511c-5.043-4.116-10.693-9.412-15.205-12.186
					c-5.422-3.303-10.938-4.729-16.972-5.706c-5.857-1.002-14.668-3.222-22.109-6.748c7.534,10.894,18.191,23.635,26.333,31.563
					c8.273,8.354,16.517,14.373,23.096,17.082c5.511,2.271,10.542,1.93,14.551,1.468c6.301-0.793,13.396-1.529,21.589-1.065
					c15.807,9.54,33.893,16.872,54.175,21.324c0.188-0.81,0.378-1.62,0.569-2.431c-19.979-4.386-37.79-11.607-53.36-21.006
					c-3.881-6.856-4.886-13.389-5.114-19.031c-0.181-3.609-0.351-7.918-2.341-12.056c-2.392-4.967-6.946-10.835-11.792-17.843
					c-4.731-6.753-10.298-17.279-12.994-26.067C74.719,296.44,71.82,303.829,70.021,308.948z"/>
			</g>
			<g>
				<path fill-rule="evenodd" clip-rule="evenodd" d="M279.982,308.948c1.939,5.204,2.82,10.507,1.17,16.241
					c-1.359,4.791-5.652,11.021-9.705,15.925c-0.162,0.2-0.328,0.404-0.496,0.604c6.596-6.553,12.527-13.597,17.777-21.027
					c0.422-6.624-1.133-12.161-2.934-16.818c-1.158-2.997-2.539-6.61-2.338-10.649c0.248-4.846,2.061-11.133,3.848-18.502
					c1.811-7.104,3.279-17.688,3.033-26.022c3.738,4.654,8.379,10.125,11.475,13.89c3.207,3.863,5.594,8.015,6.027,13.272
					c0.363,4.222-1.047,10.326-2.676,15.453c3.004-6.986,5.506-14.162,7.502-21.463c-1.684-5.437-4.564-9.509-7.379-12.841
					c-1.842-2.18-4.045-4.823-5.018-8.291c-1.166-4.16-1.389-9.995-1.859-16.772c-0.389-6.56-1.896-16.05-4.215-23.239
					c4.354,3.129,9.689,6.663,13.283,9.092c3.715,2.487,6.814,5.399,8.572,9.723c1.281,3.128,1.787,7.903,1.896,12.275
					c0.477-5.856,0.639-11.736,0.484-17.614c-2.729-3.972-6.049-6.632-9.148-8.725c-2.07-1.398-4.549-3.114-6.195-5.836
					c-1.977-3.264-3.555-8.2-5.523-13.919c-1.859-5.548-5.303-13.416-8.883-19.203c4.389,1.854,9.688,3.8,13.262,5.126
					c3.689,1.354,6.953,3.174,9.416,6.458c1.555,2.066,2.912,5.302,3.963,8.515c-1.096-5.443-2.477-10.842-4.146-16.173
					c-3.078-2.527-6.311-3.978-9.25-5.034c-2.02-0.729-4.459-1.646-6.441-3.596c-2.379-2.339-4.813-6.185-7.742-10.652
					c-2.799-4.341-7.42-10.398-11.697-14.732c4.09,0.835,8.936,1.547,12.197,2.011c3.369,0.47,6.473,1.389,9.23,3.67
					c1.428,1.179,2.924,3.035,4.289,5.032c-2.557-5.101-5.414-10.099-8.57-14.962c-2.904-1.308-5.697-1.838-8.188-2.117
					c-1.797-0.222-3.967-0.506-6.02-1.744c-2.463-1.484-5.326-4.201-8.717-7.404c-3.27-3.093-8.391-7.369-12.873-10.333
					c3.566,0.088,7.688-0.099,10.473-0.22c2.846-0.171,5.588,0.094,8.324,1.489c1.051,0.535,2.217,1.379,3.379,2.337
					c-2.195-2.501-4.486-4.952-6.873-7.346c0-0.003,0.004-0.003,0.004-0.003c-4.318-3.768-9.344-6.714-13.967-8.999
					c-2.684-1.346-5.965-2.91-8.537-4.775c-3.084-2.243-6.123-5.245-9.57-8.666c-3.332-3.314-8.73-8.063-13.885-11.665
					c6.043,1.837,13.117,4.115,17.807,5.816c4.844,1.698,9.068,3.639,12.363,6.034c2.756,1.997,5.229,4.896,7.129,7.316
					c3.271,4.184,6.75,8.857,10.525,13.226c0.002-0.002,0.004-0.004,0.006-0.004c2.422,2.431,4.746,4.92,6.973,7.461
					c-0.803-1.279-1.525-2.524-1.975-3.614c-1.17-2.828-1.336-5.524-1.168-8.364c0.131-2.773,0.086-6.981-0.596-10.73
					c4.137,4.759,9.029,10.757,12.113,14.931c3.252,4.299,5.584,8.183,6.518,11.182c0.781,2.507,0.395,4.718,0.02,6.492
					c-0.555,2.463-1.061,5.233-1.078,8.369c3.205,4.938,6.104,10.01,8.699,15.189c-0.789-2.309-1.516-4.604-1.775-6.461
					c-0.5-3.583,0.139-6.743,1.16-10.053c0.996-3.193,2.156-8.173,2.422-12.747c3.502,6.561,7.445,14.827,9.807,20.534
					c2.484,5.891,4.016,11.086,4.16,14.86c0.119,3.156-1.039,5.647-2.064,7.603c-1.498,2.856-3.072,6.082-4.148,9.927
					c1.695,5.412,3.098,10.892,4.209,16.418c-0.271-3.421-0.541-6.976-0.232-9.613c0.49-4.188,2.145-7.611,4.264-11.122
					c2.059-3.38,4.803-8.771,6.383-13.955c2.174,8.393,4.297,18.907,5.287,26.091c1.094,7.425,1.254,13.819,0.252,18.17
					c-0.836,3.644-2.934,6.146-4.713,8.065c-2.684,2.895-5.582,6.18-8.086,10.369c0.158,5.967-0.006,11.936-0.488,17.883
					c0.844-4.367,1.68-9.188,2.977-12.454c1.803-4.51,4.646-7.854,8.039-11.184c3.285-3.205,7.91-8.492,11.146-13.897
					c0.049,10.03-0.688,22.464-1.766,30.831c-1.035,8.669-2.863,15.901-5.355,20.478c-2.086,3.826-5.217,5.969-7.805,7.553
					c-3.988,2.438-8.361,5.229-12.6,9.188c-2.023,7.411-4.566,14.695-7.615,21.791c2.678-4.782,5.547-10.493,8.334-13.957
					c3.48-4.306,7.68-7.023,12.459-9.571c4.623-2.438,11.383-6.77,16.648-11.718c-3.191,11.086-8.184,24.543-12.301,33.378
					c-4.158,9.186-8.793,16.497-13.182,20.632c-3.68,3.461-7.863,4.693-11.248,5.496c-5.303,1.255-11.178,2.754-17.4,5.565
					c-5.332,7.545-11.352,14.697-18.047,21.352c0.205-0.169,0.414-0.342,0.617-0.511c5.041-4.116,10.693-9.412,15.205-12.186
					c5.418-3.303,10.938-4.729,16.971-5.706c5.857-1.002,14.668-3.222,22.109-6.748c-7.535,10.894-18.191,23.635-26.33,31.563
					c-8.277,8.354-16.521,14.373-23.1,17.082c-5.51,2.271-10.541,1.93-14.549,1.468c-6.303-0.793-13.398-1.529-21.59-1.065
					c-15.805,9.54-33.895,16.872-54.174,21.324c-0.189-0.81-0.379-1.62-0.57-2.431c19.979-4.386,37.791-11.607,53.361-21.006
					c3.879-6.856,4.885-13.389,5.113-19.031c0.182-3.609,0.352-7.918,2.342-12.056c2.389-4.967,6.949-10.835,11.791-17.843
					c4.73-6.753,10.299-17.279,12.994-26.067C275.281,296.44,278.182,303.829,279.982,308.948z"/>
			</g>
		</g>
		<g>
			<g>
				<path fill-rule="evenodd" clip-rule="evenodd" d="M257.947,162.916c-1.617-5.692-5.512-10.364-11.576-13.883
					c-3.996-2.32-8.078-3.496-12.125-3.496c-1.551,0-3.125,0.174-4.68,0.513c-0.721,0.159-1.418,0.351-2.096,0.57
					c-0.135-1.249-0.211-2.527-0.211-3.85c0-0.716,0.029-1.435,0.08-2.155H122.658c0.054,0.721,0.082,1.439,0.082,2.155
					c0,1.322-0.075,2.601-0.211,3.85c-0.677-0.22-1.375-0.411-2.097-0.57c-1.554-0.339-3.129-0.513-4.68-0.513
					c-4.047,0-8.127,1.176-12.125,3.496c-6.063,3.519-9.956,8.19-11.573,13.883c-1.622,5.701-0.711,11.571,2.7,17.45
					c1.683,2.902,3.472,5.271,5.316,7.037c1.831,1.751,5.303,4.411,10.32,7.904l5.625,3.951c9.867,6.9,15.674,11.785,17.259,14.517
					c1.128,1.941,1.477,3.895,1.04,5.807c-0.439,1.928-1.536,3.377-3.354,4.432c-0.304,0.176-0.63,0.329-0.971,0.469v6.841
					c1.643-0.351,3.145-0.906,4.479-1.68c3.428-1.991,5.677-4.836,6.688-8.452c0.503-1.81,0.642-3.597,0.412-5.344
					c7.344,3.34,15.425,6.218,23.154,9.431c11.201,4.658,4.408,10.498,1.037,14.425c-1.818,2.118-5.325,5.289-9.588,8.862l0,0
					c4.263,3.573,7.77,6.742,9.588,8.862c7.869,9.165,8.084,18.188-5.41,23.395c0,0-25.176,8.86-25.176,11.707
					c0,2.849,0,3.525,0,3.525h79.649c0,0,0-0.677,0-3.525c0-2.847-25.176-11.707-25.176-11.707
					c-13.491-5.207-13.278-14.229-5.41-23.396c1.82-2.118,5.324-5.288,9.588-8.861h0.002c-4.266-3.572-7.77-6.743-9.59-8.861
					c-3.371-3.927-10.162-9.768,1.039-14.425c7.729-3.213,15.809-6.092,23.156-9.431c-0.232,1.747-0.096,3.533,0.41,5.344
					c1.01,3.616,3.26,6.461,6.688,8.452c1.336,0.773,2.838,1.329,4.479,1.68v-6.841c-0.342-0.14-0.668-0.293-0.973-0.469
					c-1.816-1.055-2.914-2.504-3.352-4.432c-0.438-1.912-0.088-3.865,1.039-5.807c1.584-2.731,7.391-7.616,17.258-14.517
					l5.627-3.951c5.018-3.493,8.488-6.153,10.32-7.904c1.844-1.767,3.633-4.135,5.316-7.037
					C258.656,174.487,259.566,168.617,257.947,162.916z M101.128,177.014c-2.538-4.373-3.313-8.682-2.301-12.798
					c1.013-4.111,3.651-7.428,7.843-9.86c2.789-1.619,5.578-2.44,8.285-2.44c1.115,0,2.241,0.141,3.346,0.414
					c1.036,0.258,2.017,0.63,2.94,1.11c-2.226,8.608-6.138,17.012-6.138,30.336c0,2.303,0.222,4.449,0.641,6.458l-2.728-1.881
					C107.127,184.278,103.129,180.462,101.128,177.014z M248.871,177.014c-2,3.448-5.998,7.265-11.887,11.339l-2.729,1.882
					c0.418-2.01,0.641-4.156,0.641-6.459c0-13.324-3.912-21.728-6.137-30.336c0.924-0.48,1.902-0.853,2.941-1.11
					c1.102-0.273,2.229-0.414,3.344-0.414c2.709,0,5.496,0.821,8.283,2.44c4.193,2.433,6.834,5.749,7.844,9.86
					C252.184,168.332,251.412,172.641,248.871,177.014z"/>
			</g>
			<path fill-rule="evenodd" clip-rule="evenodd" d="M134.496,300.138v28.657h81.008v-28.657H134.496z M201.889,323.978h-53.777
				v-19.022h53.777V323.978z"/>
		</g>
		<path d="M150.815,70.887l-6.139,5.979l1.47,8.441l-7.59-3.995l-7.586,3.995l1.449-8.441l-6.12-5.979l8.473-1.226l3.784-7.687
			l3.784,7.687L150.815,70.887z M215.223,69.665l-3.783-7.69l-3.785,7.69l-8.477,1.222l6.121,5.981l-1.445,8.439l7.586-3.992
			l7.586,3.992l-1.465-8.439l6.139-5.981L215.223,69.665z M180.434,58.346L175,47.308l-5.432,11.038L157.4,60.1l8.788,8.587
			l-2.08,12.118L175,75.071l10.891,5.733l-2.104-12.118L192.6,60.1L180.434,58.346z"/>
	</g>
</g>
</svg>
